<svg width="214" height="34" viewBox="0 0 214 34" fill="none" xmlns="http://www.w3.org/2000/svg">
<path d="M40.576 19.256C40.576 17.864 40.824 16.648 41.32 15.608C41.832 14.568 42.528 13.768 43.408 13.208C44.288 12.648 45.264 12.368 46.336 12.368C47.2 12.368 47.968 12.552 48.64 12.92C49.328 13.272 49.864 13.76 50.248 14.384V8.24H54.976V26H50.248V24.128C49.88 24.752 49.36 25.248 48.688 25.616C48.016 25.984 47.224 26.168 46.312 26.168C45.24 26.168 44.264 25.888 43.384 25.328C42.52 24.768 41.832 23.968 41.32 22.928C40.824 21.872 40.576 20.648 40.576 19.256ZM50.272 19.256C50.272 18.392 50.032 17.712 49.552 17.216C49.088 16.72 48.512 16.472 47.824 16.472C47.12 16.472 46.536 16.72 46.072 17.216C45.608 17.696 45.376 18.376 45.376 19.256C45.376 20.12 45.608 20.808 46.072 21.32C46.536 21.816 47.12 22.064 47.824 22.064C48.512 22.064 49.088 21.816 49.552 21.32C50.032 20.824 50.272 20.136 50.272 19.256ZM56.8885 19.256C56.8885 17.864 57.1365 16.648 57.6325 15.608C58.1445 14.568 58.8325 13.768 59.6965 13.208C60.5765 12.648 61.5525 12.368 62.6245 12.368C63.5525 12.368 64.3525 12.552 65.0245 12.92C65.6965 13.288 66.2165 13.784 66.5845 14.408V12.536H71.2885V26H66.5845V24.128C66.2165 24.752 65.6885 25.248 65.0005 25.616C64.3285 25.984 63.5365 26.168 62.6245 26.168C61.5525 26.168 60.5765 25.888 59.6965 25.328C58.8325 24.768 58.1445 23.968 57.6325 22.928C57.1365 21.872 56.8885 20.648 56.8885 19.256ZM66.5845 19.256C66.5845 18.392 66.3445 17.712 65.8645 17.216C65.4005 16.72 64.8245 16.472 64.1365 16.472C63.4325 16.472 62.8485 16.72 62.3845 17.216C61.9205 17.696 61.6885 18.376 61.6885 19.256C61.6885 20.12 61.9205 20.808 62.3845 21.32C62.8485 21.816 63.4325 22.064 64.1365 22.064C64.8245 22.064 65.4005 21.816 65.8645 21.32C66.3445 20.824 66.5845 20.136 66.5845 19.256ZM78.673 14.912C79.201 14.144 79.841 13.536 80.593 13.088C81.345 12.64 82.153 12.416 83.017 12.416V17.432H81.697C80.673 17.432 79.913 17.632 79.417 18.032C78.921 18.432 78.673 19.128 78.673 20.12V26H73.969V12.536H78.673V14.912ZM93.1274 26L89.4074 20.48V26H84.7034V8.24H89.4074V17.816L93.1274 12.536H98.7674L93.4634 19.304L98.8634 26H93.1274Z" fill="#555555"/>
<path d="M119.994 9.08V26H115.29V16.664L112.098 26H108.162L104.946 16.592V26H100.242V9.08H105.93L110.178 20.072L114.33 9.08H119.994ZM125.048 11.288C124.216 11.288 123.544 11.064 123.032 10.616C122.536 10.152 122.288 9.576 122.288 8.888C122.288 8.184 122.536 7.6 123.032 7.136C123.544 6.672 124.216 6.44 125.048 6.44C125.864 6.44 126.52 6.672 127.016 7.136C127.528 7.6 127.784 8.184 127.784 8.888C127.784 9.576 127.528 10.152 127.016 10.616C126.52 11.064 125.864 11.288 125.048 11.288ZM127.376 12.536V26H122.672V12.536H127.376ZM138.455 26L136.031 22.616L134.111 26H128.951L133.439 19.016L128.759 12.536H134.039L136.463 15.92L138.407 12.536H143.567L138.983 19.4L143.735 26H138.455ZM147.405 26.192C146.573 26.192 145.901 25.968 145.389 25.52C144.893 25.056 144.645 24.472 144.645 23.768C144.645 23.064 144.893 22.48 145.389 22.016C145.901 21.552 146.573 21.32 147.405 21.32C148.221 21.32 148.877 21.552 149.373 22.016C149.885 22.48 150.141 23.064 150.141 23.768C150.141 24.456 149.885 25.032 149.373 25.496C148.877 25.96 148.221 26.192 147.405 26.192ZM158.08 26.168C156.864 26.168 155.776 25.968 154.816 25.568C153.872 25.152 153.12 24.592 152.56 23.888C152.016 23.168 151.712 22.36 151.648 21.464H156.208C156.272 21.896 156.472 22.232 156.808 22.472C157.144 22.712 157.56 22.832 158.056 22.832C158.44 22.832 158.744 22.752 158.968 22.592C159.192 22.432 159.304 22.224 159.304 21.968C159.304 21.632 159.12 21.384 158.752 21.224C158.384 21.064 157.776 20.888 156.928 20.696C155.968 20.504 155.168 20.288 154.528 20.048C153.888 19.808 153.328 19.416 152.848 18.872C152.384 18.328 152.152 17.592 152.152 16.664C152.152 15.864 152.368 15.144 152.8 14.504C153.232 13.848 153.864 13.328 154.696 12.944C155.544 12.56 156.56 12.368 157.744 12.368C159.504 12.368 160.888 12.8 161.896 13.664C162.904 14.528 163.488 15.664 163.648 17.072H159.4C159.32 16.64 159.128 16.312 158.824 16.088C158.536 15.848 158.144 15.728 157.648 15.728C157.264 15.728 156.968 15.8 156.76 15.944C156.568 16.088 156.472 16.288 156.472 16.544C156.472 16.864 156.656 17.112 157.024 17.288C157.392 17.448 157.984 17.616 158.8 17.792C159.776 18 160.584 18.232 161.224 18.488C161.88 18.744 162.448 19.16 162.928 19.736C163.424 20.296 163.672 21.064 163.672 22.04C163.672 22.824 163.44 23.528 162.976 24.152C162.528 24.776 161.88 25.272 161.032 25.64C160.2 25.992 159.216 26.168 158.08 26.168ZM174.841 12.416C176.377 12.416 177.593 12.936 178.489 13.976C179.401 15 179.857 16.392 179.857 18.152V26H175.153V18.776C175.153 18.008 174.953 17.408 174.553 16.976C174.153 16.528 173.617 16.304 172.945 16.304C172.241 16.304 171.689 16.528 171.289 16.976C170.889 17.408 170.689 18.008 170.689 18.776V26H165.985V8.24H170.689V14.456C171.105 13.848 171.665 13.36 172.369 12.992C173.089 12.608 173.913 12.416 174.841 12.416ZM188.702 26.168C187.358 26.168 186.15 25.888 185.078 25.328C184.022 24.768 183.19 23.968 182.582 22.928C181.974 21.888 181.67 20.664 181.67 19.256C181.67 17.864 181.974 16.648 182.582 15.608C183.206 14.568 184.046 13.768 185.102 13.208C186.174 12.648 187.382 12.368 188.726 12.368C190.07 12.368 191.27 12.648 192.326 13.208C193.398 13.768 194.238 14.568 194.846 15.608C195.47 16.648 195.782 17.864 195.782 19.256C195.782 20.648 195.47 21.872 194.846 22.928C194.238 23.968 193.398 24.768 192.326 25.328C191.254 25.888 190.046 26.168 188.702 26.168ZM188.702 22.088C189.358 22.088 189.902 21.848 190.334 21.368C190.782 20.872 191.006 20.168 191.006 19.256C191.006 18.344 190.782 17.648 190.334 17.168C189.902 16.688 189.366 16.448 188.726 16.448C188.086 16.448 187.55 16.688 187.118 17.168C186.686 17.648 186.47 18.344 186.47 19.256C186.47 20.184 186.678 20.888 187.094 21.368C187.51 21.848 188.046 22.088 188.702 22.088ZM202.4 14.408C202.768 13.784 203.288 13.288 203.96 12.92C204.632 12.552 205.424 12.368 206.336 12.368C207.408 12.368 208.376 12.648 209.24 13.208C210.12 13.768 210.808 14.568 211.304 15.608C211.816 16.648 212.072 17.864 212.072 19.256C212.072 20.648 211.816 21.872 211.304 22.928C210.808 23.968 210.12 24.768 209.24 25.328C208.376 25.888 207.408 26.168 206.336 26.168C205.424 26.168 204.632 25.984 203.96 25.616C203.304 25.248 202.784 24.752 202.4 24.128V32.432H197.696V12.536H202.4V14.408ZM207.296 19.256C207.296 18.376 207.056 17.696 206.576 17.216C206.112 16.72 205.536 16.472 204.848 16.472C204.16 16.472 203.576 16.72 203.096 17.216C202.632 17.712 202.4 18.392 202.4 19.256C202.4 20.136 202.632 20.824 203.096 21.32C203.576 21.816 204.16 22.064 204.848 22.064C205.536 22.064 206.112 21.816 206.576 21.32C207.056 20.808 207.296 20.12 207.296 19.256Z" fill="#F5F1E3"/>
<circle cx="15" cy="19" r="15" fill="#F5F1E3"/>
<path d="M15.915 8.15312C14.345 7.24667 12.3275 7.80431 11.4067 9.39924C10.4859 10.9942 11.0117 13.0202 12.5817 13.9266C13.8746 14.6731 15.4714 14.4258 16.5076 13.4268C17.067 13.7786 17.4324 14.1628 17.5891 14.5804C17.9503 15.5299 17.3577 16.8188 16.727 18.1819C16.2318 19.2528 15.723 20.3639 15.6335 21.4621L10.5186 18.509C10.8334 17.1271 10.2467 15.6577 8.97503 14.9235C7.40502 14.0171 5.38755 14.5747 4.46672 16.1696C3.54588 17.7646 4.07169 19.7906 5.64169 20.697C6.91333 21.4312 8.47919 21.2046 9.51858 20.241L16.5978 24.3282C16.2866 25.7122 16.8733 27.1816 18.1449 27.9158C19.7149 28.8222 21.7324 28.2646 22.6532 26.6696C23.5741 25.0747 23.0483 23.0487 21.4783 22.1423C20.2706 21.445 18.7953 21.6132 17.7618 22.4599C17.6416 22.2414 17.5762 21.9775 17.5962 21.6474C17.6424 20.8947 18.0685 19.9764 18.5186 18.9998C19.2593 17.397 20.0953 15.5799 19.4395 13.8446C19.1131 12.9825 18.4654 12.267 17.4777 11.6726C17.7524 10.3109 17.1653 8.87499 15.915 8.15312ZM6.74003 17.4821C6.92337 17.1646 7.32911 17.0525 7.64169 17.2329C7.95428 17.4134 8.06002 17.8209 7.87669 18.1384C7.69336 18.4559 7.28761 18.5681 6.97503 18.3876C6.66245 18.2072 6.5567 17.7997 6.74003 17.4821ZM20.3799 25.3571C20.1966 25.6747 19.7909 25.7868 19.4783 25.6064C19.1657 25.4259 19.0599 25.0184 19.2433 24.7009C19.4266 24.3834 19.8324 24.2712 20.1449 24.4517C20.4575 24.6321 20.5633 25.0396 20.3799 25.3571ZM13.68 10.7117C13.8633 10.3942 14.2691 10.282 14.5817 10.4625C14.8943 10.643 15 11.0504 14.8167 11.368C14.6333 11.6855 14.2276 11.7977 13.915 11.6172C13.6024 11.4367 13.4967 11.0293 13.68 10.7117Z" fill="black"/>
</svg>
